<?xml version="1.0" encoding="UTF-8"?> <svg xmlns="http://www.w3.org/2000/svg" xmlns:xlink="http://www.w3.org/1999/xlink" id="Layer_2" data-name="Layer 2" viewBox="0 0 125.9 59"><defs><style> .cls-1 { fill: none; } .cls-2 { clip-path: url(#clippath); } .cls-3 { fill: #053c6d; } .cls-4 { fill: #fff; } .cls-5 { fill: red; } .cls-6 { fill: #153d6b; } .cls-7 { clip-path: url(#clippath-1); } </style><clipPath id="clippath"><polygon class="cls-1" points="62.97 29.69 16.49 8.06 16.49 51.32 62.97 29.69"></polygon></clipPath><clipPath id="clippath-1"><polygon class="cls-1" points="63.03 29.69 125 58.53 125 .85 63.03 29.69"></polygon></clipPath></defs><g id="Layer_1-2" data-name="Layer 1"><g><rect class="cls-4" x="1" y="1" width="123.9" height="57"></rect><polygon class="cls-6" points="16.49 8.06 1 .85 1 58.53 16.49 51.32 16.49 8.06"></polygon><g class="cls-2"><path class="cls-5" d="M62.97,47.99v3.33H16.49v-3.33H62.97Zm-46.48-6.65v3.33s46.48,0,46.48,0v-3.33s-46.48,0-46.48,0Zm0-6.65v3.33s46.48,0,46.48,0v-3.33s-46.48,0-46.48,0Zm0-6.65v3.33s46.48,0,46.48,0v-3.33s-46.48,0-46.48,0Zm0-6.65v3.33s46.48,0,46.48,0v-3.33s-46.48,0-46.48,0Zm0-6.65v3.33s46.48,0,46.48,0v-3.33s-46.48,0-46.48,0Zm0-6.65v3.33s46.48,0,46.48,0v-3.33s-46.48,0-46.48,0Z"></path></g><g class="cls-7"><g><rect class="cls-5" x="63.03" y="36.9" width="61.97" height="21.63"></rect><rect class="cls-5" x="63.03" y=".85" width="61.97" height="21.63"></rect><rect class="cls-3" x="63.03" y="26.08" width="61.97" height="7.21"></rect></g></g><g><polygon class="cls-4" points="11.67 11.28 12.33 13.15 14.37 13.15 12.73 14.31 13.39 16.18 11.67 15.09 9.96 16.18 10.61 14.31 8.98 13.15 11.02 13.15 11.67 11.28 11.67 11.28"></polygon><polygon class="cls-4" points="11.67 21.48 12.33 23.35 14.37 23.35 12.73 24.51 13.39 26.38 11.67 25.29 9.96 26.38 10.61 24.51 8.98 23.35 11.02 23.35 11.67 21.48 11.67 21.48"></polygon><polygon class="cls-4" points="11.67 31.68 12.33 33.55 14.37 33.55 12.73 34.72 13.39 36.58 11.67 35.49 9.96 36.58 10.61 34.72 8.98 33.55 11.02 33.55 11.67 31.68 11.67 31.68"></polygon><polygon class="cls-4" points="11.67 41.89 12.33 43.75 14.37 43.75 12.73 44.92 13.39 46.78 11.67 45.7 9.96 46.78 10.61 44.92 8.98 43.75 11.02 43.75 11.67 41.89 11.67 41.89"></polygon></g><g><polygon class="cls-4" points="5.53 6.18 6.19 8.05 8.23 8.05 6.59 9.21 7.25 11.08 5.53 9.99 3.82 11.08 4.47 9.21 2.84 8.05 4.88 8.05 5.53 6.18 5.53 6.18"></polygon><polygon class="cls-4" points="5.53 16.38 6.19 18.25 8.23 18.25 6.59 19.41 7.25 21.28 5.53 20.19 3.82 21.28 4.47 19.41 2.84 18.25 4.88 18.25 5.53 16.38 5.53 16.38"></polygon><polygon class="cls-4" points="5.53 26.58 6.19 28.45 8.23 28.45 6.59 29.62 7.25 31.48 5.53 30.39 3.82 31.48 4.47 29.62 2.84 28.45 4.88 28.45 5.53 26.58 5.53 26.58"></polygon><polygon class="cls-4" points="5.53 36.78 6.19 38.65 8.23 38.65 6.59 39.82 7.25 41.68 5.53 40.59 3.82 41.68 4.47 39.82 2.84 38.65 4.88 38.65 5.53 36.78 5.53 36.78"></polygon><polygon class="cls-4" points="5.53 46.99 6.19 48.85 8.23 48.85 6.59 50.02 7.25 51.89 5.53 50.8 3.82 51.89 4.47 50.02 2.84 48.85 4.88 48.85 5.53 46.99 5.53 46.99"></polygon></g><path class="cls-3" d="M124.9,1V58H1V1H124.9m1-1H0V59H125.9V0h0Z"></path></g></g></svg> 