
<svg width="154" height="32" viewBox="0 0 154 32" fill="none" xmlns="http://www.w3.org/2000/svg">
	<path fill="#FFFFFF" d="M47.7,9.68c-5.19-2.55-10.47-2.76-12.67-2.76c-5.59,0-7.14,1.78-6.92,3.02c0.27,1.53,2.91,2.59,5.92,3.78
		l2.46,0.98c3.02,1.23,8.58,3.53,9.25,7.31c0.46,2.59-1.42,5.35-5.59,7.18C36.47,30.86,30.49,32,22.36,32
		c-6.93,0-14.35-0.76-21.02-2.12l2.68-7.36c6.02,1.95,10.43,2.55,14.75,2.55c1.35,0,3.8-0.05,5.8-0.72c1.75-0.64,2.59-1.62,2.42-2.6
		c-0.28-1.57-2.55-2.42-8.18-4.59c-3.08-1.19-8.35-3.23-9.04-7.1c-0.8-4.54,5.63-9.86,21.54-9.86c3.39,0,10.45,0.26,19.02,2.29
		L47.7,9.68z"/>
	<polygon fill="#FFFFFF" points="150.2,8.15 152.66,1.06 110.86,1.06 106.44,13.36 125.52,13.36 102.89,23.27 100.07,31.1 
		119.21,31.1 123.07,20.39 141.85,20.39 144.34,13.38 125.55,13.38 127.42,8.15 	"/>
	<path fill="#FFFFFF" d="M85.24,0C58.58,0,47.12,9.35,48.65,18.01c1.34,7.61,12.3,13.58,30.58,13.58c1.83,0,3.53-0.06,5.05-0.16
		l18.49-8.11l0.05-0.03c-4.5,0.89-10.65,2.03-16.83,2.03c-13.54,0-18.09-4.23-18.72-7.78c-0.86-4.86,5.49-11.08,19.71-11.08
		c6.14,0,11.18,1.22,14.13,1.94l2.53-7.05C97.62,0.46,91.43,0,85.24,0z"/>
</svg>
