<svg xmlns="http://www.w3.org/2000/svg" viewBox="0 0 308.35 291.96"><defs><style>.cls-1{fill:#fff;}</style></defs><title>Recurso 6</title><g id="Capa_2" data-name="Capa 2"><g id="Layer_1" data-name="Layer 1"><polygon class="cls-1" points="301.8 61.53 285.03 61.53 285.03 16.77 26.89 16.77 26.89 61.53 10.12 61.53 10.12 0 301.8 0 301.8 61.53"/><path class="cls-1" d="M92.58,170.72c-2.33,30.64-33.24,33.43-51.1,31.57C24.85,200.59,9,193.32,0,186.66l13.67-22.43C25.94,178.15,57.94,183,60.43,171c4.19-19.49-57.63-9.12-52.35-52.29,2-16.1,13.82-31.42,47.06-29.56C76.27,90.42,86.68,97.84,89,99.7L78.45,122.91c-10-9.44-37.75-14.85-40.39-2.16-3.57,16.71,57.32,11,54.52,50"/><polygon class="cls-1" points="232.59 92.1 232.7 200.84 308.35 200.76 308.32 175.59 262.5 175.64 262.41 92.07 232.59 92.1"/><path class="cls-1" d="M204.85,122.8l0-30.23H123.57v30.19Zm-81.28,78h26.7V170.6h-26.7Zm0-69.48v30.27h50.89l0-30.18Z"/><path class="cls-1" d="M281.44,292H30.26C15.4,292,10,279.84,10,271.7V230.43H26.78V271.6c.16,3.58,2.24,3.58,3.48,3.58H281.33c3.59-.16,3.59-2.24,3.59-3.48V230.43h16.77V271.7C301.69,286.56,289.58,292,281.44,292Z"/></g></g></svg>