<?xml version="1.0" encoding="utf-8"?>
<!-- Generator: Adobe Illustrator 19.0.0, SVG Export Plug-In . SVG Version: 6.00 Build 0)  -->
<svg version="1.1" id="Layer_1" xmlns="http://www.w3.org/2000/svg" xmlns:xlink="http://www.w3.org/1999/xlink" x="0px" y="0px"
	 width="363px" height="80.3px" viewBox="-262 60.7 363 80.3" style="enable-background:new -262 60.7 363 80.3;"
	 xml:space="preserve">
<style type="text/css">
	.st0{fill:#020D37;}
	.st1{fill:#FFFEFE;}
	.st2{fill:#EE2E25;}
	.st3{fill:#005CA7;}
</style>
<polygon id="XMLID_220_" class="st0" points="100.7,60.7 42,141 -262,141 -262,60.7 "/>
<g id="XMLID_201_">
	<path id="XMLID_218_" class="st1" d="M-181.2,84.5l3.4,12.7l4.2-12.7h4.1l4.2,12.7l3.4-12.7h5.3l-5.9,19.6h-5.2l-3.8-11.4
		l-3.8,11.4h-5.2l-5.9-19.6C-186.4,84.5-181.2,84.5-181.2,84.5z"/>
	<path id="XMLID_215_" class="st1" d="M-143.7,100.7h-7.3l-1.2,3.4h-5.4l7.5-19.6h5.6l7.5,19.6h-5.4L-143.7,100.7z M-145.1,96.9
		l-2.3-6.5l-2.3,6.5H-145.1z"/>
	<path id="XMLID_213_" class="st1" d="M-129.8,92.1h7.4v-7.6h5.1v19.6h-5.1V96h-7.4v8.1h-5.1V84.5h5.1V92.1z"/>
	<path id="XMLID_211_" class="st1" d="M-99.3,92.6l6.2-8.1h6.3l-7.8,9.3l8.5,10.3h-6.6l-6.6-8.5v8.5h-5.1V84.5h5.1L-99.3,92.6
		L-99.3,92.6z"/>
	<path id="XMLID_209_" class="st1" d="M-80.5,84.5l3.4,12.7l4.2-12.7h4.1l4.2,12.7l3.4-12.7h5.3l-5.8,19.6h-5.2l-3.8-11.4l-3.8,11.4
		h-5.2l-5.8-19.6C-85.5,84.5-80.5,84.5-80.5,84.5z"/>
	<path id="XMLID_206_" class="st1" d="M-55.3,94.3c0-1.5,0.3-2.8,0.8-4.1s1.3-2.4,2.2-3.3c0.9-0.9,2.1-1.7,3.4-2.2s2.8-0.8,4.4-0.8
		c1.6,0,3,0.3,4.4,0.8s2.5,1.3,3.4,2.2c1,0.9,1.7,2,2.2,3.3c0.5,1.3,0.8,2.6,0.8,4.1s-0.3,2.8-0.8,4.1s-1.3,2.4-2.2,3.3
		c-1,0.9-2.1,1.7-3.4,2.2s-2.8,0.8-4.4,0.8c-1.6,0-3.1-0.3-4.4-0.8s-2.4-1.3-3.4-2.2s-1.7-2-2.2-3.3C-55,97.1-55.3,95.8-55.3,94.3z
		 M-50,94.3c0,0.8,0.1,1.5,0.4,2.2c0.3,0.7,0.7,1.2,1.2,1.7s1.1,0.9,1.8,1.1c0.7,0.3,1.4,0.4,2.1,0.4s1.5-0.1,2.1-0.4
		c0.7-0.3,1.3-0.6,1.8-1.1s0.9-1.1,1.2-1.7c0.3-0.7,0.4-1.4,0.4-2.2s-0.1-1.5-0.4-2.2c-0.3-0.7-0.7-1.2-1.2-1.7s-1.1-0.9-1.8-1.1
		c-0.7-0.3-1.4-0.4-2.1-0.4s-1.5,0.1-2.1,0.4c-0.7,0.3-1.3,0.6-1.8,1.1s-0.9,1.1-1.2,1.7C-49.8,92.8-50,93.6-50,94.3z"/>
	<path id="XMLID_204_" class="st1" d="M-30.4,104.1V84.5h5.1l9.4,12v-12h5.1v19.6h-5.1l-9.4-12v12H-30.4z"/>
	<path id="XMLID_202_" class="st1" d="M3.2,93.2h10.1c0,1,0,2-0.1,2.8c-0.1,0.8-0.3,1.6-0.5,2.4c-0.4,1-0.9,1.9-1.5,2.7
		s-1.4,1.4-2.2,2c-0.8,0.5-1.8,0.9-2.8,1.2c-1,0.3-2.1,0.4-3.2,0.4c-1.5,0-2.9-0.3-4.2-0.8c-1.3-0.5-2.3-1.2-3.2-2.1
		c-0.9-0.9-1.6-2-2.1-3.3c-0.5-1.3-0.8-2.7-0.8-4.2s0.2-2.9,0.7-4.2c0.5-1.3,1.2-2.4,2.1-3.3s2-1.6,3.3-2.1s2.7-0.8,4.3-0.8
		c2,0,3.8,0.4,5.4,1.3c1.5,0.9,2.8,2.3,3.7,4.1l-4.8,2c-0.5-1.1-1-1.8-1.8-2.3c-0.7-0.5-1.5-0.7-2.5-0.7c-0.8,0-1.5,0.1-2.1,0.4
		c-0.6,0.3-1.2,0.7-1.6,1.2s-0.8,1.2-1,1.9C-1.9,92.5-2,93.4-2,94.3c0,0.8,0.1,1.6,0.3,2.3c0.2,0.7,0.5,1.3,1,1.8s1,0.9,1.6,1.2
		c0.6,0.3,1.4,0.4,2.2,0.4c0.5,0,1-0.1,1.5-0.2c0.5-0.1,0.9-0.3,1.3-0.5c0.4-0.3,0.7-0.6,0.9-1c0.2-0.4,0.4-0.9,0.5-1.5H3.1v-3.6
		H3.2z"/>
</g>
<g id="XMLID_126_">
	<path id="XMLID_199_" class="st1" d="M-176.2,110.6v5.6h-0.6v-4.5l-2.2,3.8h-0.3l-2.2-3.7v4.5h-0.6v-5.6h0.5l2.4,4.2l2.4-4.2
		L-176.2,110.6L-176.2,110.6z"/>
	<path id="XMLID_196_" class="st1" d="M-170.3,114.7h-3.1l-0.7,1.5h-0.6l2.6-5.6h0.6l2.6,5.6h-0.6L-170.3,114.7z M-170.6,114.3
		l-1.3-3l-1.3,3H-170.6z"/>
	<path id="XMLID_193_" class="st1" d="M-163.8,116.2l-1.3-1.8c-0.1,0-0.3,0-0.4,0h-1.5v1.8h-0.6v-5.6h2.1c0.7,0,1.3,0.2,1.7,0.5
		s0.6,0.8,0.6,1.4c0,0.4-0.1,0.8-0.3,1.1s-0.5,0.5-0.9,0.7l1.4,1.9C-163,116.2-163.8,116.2-163.8,116.2z M-164.3,113.6
		c0.3-0.2,0.4-0.6,0.4-1c0-0.5-0.1-0.8-0.4-1c-0.3-0.2-0.7-0.4-1.3-0.4h-1.5v2.8h1.5C-165,114-164.6,113.8-164.3,113.6z"/>
	<path id="XMLID_191_" class="st1" d="M-161.4,110.6h0.6v5.6h-0.6V110.6z"/>
	<path id="XMLID_189_" class="st1" d="M-157.4,111.1h-2v-0.5h4.5v0.5h-2v5.1h-0.6v-5.1H-157.4z"/>
	<path id="XMLID_187_" class="st1" d="M-153.4,110.6h0.6v5.6h-0.6V110.6z"/>
	<path id="XMLID_185_" class="st1" d="M-144.7,110.6v5.6h-0.6v-4.5l-2.2,3.8h-0.3l-2.2-3.7v4.5h-0.6v-5.6h0.5l2.4,4.2l2.4-4.2
		L-144.7,110.6L-144.7,110.6z"/>
	<path id="XMLID_183_" class="st1" d="M-138.4,115.7v0.5h-4v-5.6h3.8v0.5h-3.2v2h2.9v0.5h-2.9v2.1H-138.4z"/>
	<path id="XMLID_181_" class="st1" d="M-132.9,111.1h-2v-0.5h4.5v0.5h-2v5.1h-0.6v-5.1H-132.9z"/>
	<path id="XMLID_178_" class="st1" d="M-125.1,116.2l-1.3-1.8c-0.1,0-0.3,0-0.4,0h-1.5v1.8h-0.6v-5.6h2.1c0.7,0,1.3,0.2,1.7,0.5
		s0.6,0.8,0.6,1.4c0,0.4-0.1,0.8-0.3,1.1s-0.5,0.5-0.9,0.7l1.4,1.9C-124.3,116.2-125.1,116.2-125.1,116.2z M-125.6,113.6
		c0.3-0.2,0.4-0.6,0.4-1c0-0.5-0.1-0.8-0.4-1s-0.7-0.4-1.3-0.4h-1.4v2.8h1.5C-126.3,114-125.8,113.8-125.6,113.6z"/>
	<path id="XMLID_175_" class="st1" d="M-119.1,114.7h-3.1l-0.7,1.5h-0.6l2.6-5.6h0.6l2.6,5.6h-0.6L-119.1,114.7z M-119.3,114.3
		l-1.3-3l-1.3,3H-119.3z"/>
	<path id="XMLID_173_" class="st1" d="M-111.7,110.6v5.6h-0.5l-3.6-4.5v4.5h-0.6v-5.6h0.5l3.6,4.5v-4.5H-111.7z"/>
	<path id="XMLID_171_" class="st1" d="M-109.1,116.1c-0.4-0.1-0.7-0.3-0.9-0.5l0.2-0.5c0.2,0.2,0.5,0.4,0.8,0.5s0.7,0.2,1,0.2
		c0.5,0,0.9-0.1,1.1-0.3c0.2-0.2,0.4-0.4,0.4-0.7c0-0.2-0.1-0.4-0.2-0.5c-0.1-0.1-0.3-0.2-0.5-0.3s-0.5-0.2-0.8-0.2
		c-0.4-0.1-0.8-0.2-1-0.3s-0.5-0.2-0.6-0.5s-0.3-0.5-0.3-0.8c0-0.3,0.1-0.5,0.2-0.8c0.1-0.2,0.4-0.4,0.7-0.6s0.7-0.2,1.2-0.2
		c0.3,0,0.6,0,0.9,0.1c0.3,0.1,0.6,0.2,0.8,0.4l-0.2,0.5c-0.2-0.2-0.5-0.3-0.8-0.3c-0.3-0.1-0.5-0.1-0.8-0.1c-0.5,0-0.9,0.1-1.1,0.3
		c-0.2,0.2-0.4,0.4-0.4,0.7c0,0.2,0.1,0.4,0.2,0.5c0.1,0.1,0.3,0.2,0.5,0.3c0.2,0.1,0.5,0.2,0.8,0.2c0.4,0.1,0.7,0.2,1,0.3
		c0.3,0.1,0.5,0.2,0.6,0.4c0.2,0.2,0.3,0.5,0.3,0.8s-0.1,0.5-0.2,0.8c-0.2,0.2-0.4,0.4-0.7,0.6c-0.3,0.1-0.7,0.2-1.2,0.2
		C-108.3,116.3-108.7,116.2-109.1,116.1z"/>
	<path id="XMLID_168_" class="st1" d="M-100.3,111.1c0.4,0.3,0.6,0.8,0.6,1.4c0,0.6-0.2,1.1-0.6,1.4s-1,0.5-1.7,0.5h-1.5v1.8h-0.6
		v-5.6h2.1C-101.2,110.6-100.7,110.8-100.3,111.1z M-100.7,113.6c0.3-0.2,0.4-0.6,0.4-1c0-0.5-0.1-0.8-0.4-1
		c-0.3-0.2-0.7-0.4-1.3-0.4h-1.5v2.8h1.5C-101.4,113.9-101,113.8-100.7,113.6z"/>
	<path id="XMLID_165_" class="st1" d="M-96.9,115.9c-0.5-0.2-0.8-0.6-1.1-1c-0.3-0.4-0.4-0.9-0.4-1.5c0-0.5,0.1-1,0.4-1.5
		c0.3-0.4,0.6-0.8,1.1-1c0.5-0.2,1-0.4,1.5-0.4s1.1,0.1,1.5,0.4c0.4,0.2,0.8,0.6,1.1,1c0.3,0.4,0.4,0.9,0.4,1.5c0,0.5-0.1,1-0.4,1.5
		c-0.3,0.4-0.6,0.8-1.1,1c-0.4,0.2-0.9,0.4-1.5,0.4S-96.4,116.2-96.9,115.9z M-94.2,115.5c0.4-0.2,0.6-0.5,0.8-0.8
		c0.2-0.4,0.3-0.8,0.3-1.2c0-0.4-0.1-0.8-0.3-1.2s-0.5-0.6-0.8-0.8c-0.4-0.2-0.8-0.3-1.2-0.3s-0.8,0.1-1.2,0.3
		c-0.4,0.2-0.6,0.5-0.8,0.8c-0.2,0.4-0.3,0.8-0.3,1.2c0,0.4,0.1,0.8,0.3,1.2s0.5,0.6,0.8,0.8c0.4,0.2,0.8,0.3,1.2,0.3
		C-94.9,115.8-94.5,115.7-94.2,115.5z"/>
	<path id="XMLID_162_" class="st1" d="M-86.8,116.2l-1.3-1.8c-0.1,0-0.3,0-0.4,0H-90v1.8h-0.6v-5.6h2.1c0.7,0,1.3,0.2,1.7,0.5
		s0.6,0.8,0.6,1.4c0,0.4-0.1,0.8-0.3,1.1s-0.5,0.5-0.9,0.7l1.4,1.9C-86,116.2-86.8,116.2-86.8,116.2z M-87.3,113.6
		c0.3-0.2,0.4-0.6,0.4-1c0-0.5-0.1-0.8-0.4-1c-0.3-0.2-0.7-0.4-1.3-0.4h-1.5v2.8h1.5C-88,114-87.6,113.8-87.3,113.6z"/>
	<path id="XMLID_160_" class="st1" d="M-83.4,111.1h-2v-0.5h4.5v0.5h-2v5.1h-0.6v-5.1H-83.4z"/>
	<path id="XMLID_158_" class="st1" d="M-72.1,110.6v5.6h-0.6v-2.5h-3.5v2.6h-0.6v-5.6h0.6v2.5h3.5v-2.5L-72.1,110.6L-72.1,110.6z"/>
	<path id="XMLID_155_" class="st1" d="M-68.9,115.9c-0.5-0.2-0.8-0.6-1.1-1c-0.3-0.4-0.4-0.9-0.4-1.5c0-0.5,0.1-1,0.4-1.5
		c0.3-0.4,0.6-0.8,1.1-1c0.5-0.2,1-0.4,1.5-0.4s1.1,0.1,1.5,0.4c0.4,0.2,0.8,0.6,1.1,1c0.3,0.4,0.4,0.9,0.4,1.5c0,0.5-0.1,1-0.4,1.5
		s-0.6,0.8-1.1,1c-0.4,0.2-0.9,0.4-1.5,0.4S-68.4,116.2-68.9,115.9z M-66.2,115.5c0.4-0.2,0.6-0.5,0.8-0.8c0.2-0.4,0.3-0.8,0.3-1.2
		c0-0.4-0.1-0.8-0.3-1.2s-0.5-0.6-0.8-0.8c-0.4-0.2-0.8-0.3-1.2-0.3s-0.8,0.1-1.2,0.3c-0.4,0.2-0.6,0.5-0.8,0.8
		c-0.2,0.4-0.3,0.8-0.3,1.2c0,0.4,0.1,0.8,0.3,1.2s0.5,0.6,0.8,0.8c0.4,0.2,0.8,0.3,1.2,0.3C-66.9,115.8-66.5,115.7-66.2,115.5z"/>
	<path id="XMLID_153_" class="st1" d="M-62.6,110.6h0.6v5.1h3.1v0.5h-3.7L-62.6,110.6L-62.6,110.6z"/>
	<path id="XMLID_150_" class="st1" d="M-57.4,110.6h2.3c0.6,0,1.1,0.1,1.6,0.4s0.8,0.6,1.1,1c0.2,0.4,0.4,0.9,0.4,1.5
		c0,0.5-0.1,1-0.4,1.5c-0.3,0.4-0.6,0.8-1.1,1s-1,0.4-1.6,0.4h-2.3V110.6z M-55.2,115.7c0.5,0,0.9-0.1,1.3-0.3
		c0.4-0.2,0.7-0.5,0.9-0.8s0.3-0.7,0.3-1.2c0-0.4-0.1-0.8-0.3-1.2c-0.2-0.3-0.5-0.6-0.9-0.8c-0.4-0.2-0.8-0.3-1.3-0.3h-1.7v4.6
		H-55.2z"/>
	<path id="XMLID_148_" class="st1" d="M-50.3,110.6h0.6v5.6h-0.6V110.6z"/>
	<path id="XMLID_146_" class="st1" d="M-42.8,110.6v5.6h-0.5l-3.6-4.5v4.5h-0.6v-5.6h0.5l3.6,4.5v-4.5H-42.8z"/>
	<path id="XMLID_144_" class="st1" d="M-36.5,113.4h0.6v2.1c-0.3,0.2-0.6,0.4-0.9,0.5c-0.4,0.1-0.7,0.2-1.1,0.2
		c-0.6,0-1.1-0.1-1.5-0.4c-0.4-0.2-0.8-0.6-1.1-1s-0.4-0.9-0.4-1.5c0-0.5,0.1-1,0.4-1.5c0.3-0.4,0.6-0.8,1.1-1
		c0.4-0.2,1-0.4,1.5-0.4c0.4,0,0.8,0.1,1.2,0.2c0.4,0.1,0.7,0.3,0.9,0.6l-0.4,0.4c-0.4-0.4-1-0.7-1.7-0.7c-0.5,0-0.9,0.1-1.2,0.3
		c-0.4,0.2-0.7,0.5-0.9,0.8c-0.2,0.4-0.3,0.8-0.3,1.2c0,0.4,0.1,0.8,0.3,1.2s0.5,0.6,0.9,0.8c0.4,0.2,0.8,0.3,1.2,0.3
		c0.6,0,1.1-0.1,1.5-0.4v-1.7H-36.5z"/>
	<path id="XMLID_142_" class="st1" d="M-33.4,116.1c-0.4-0.1-0.7-0.3-0.9-0.5l0.2-0.5c0.2,0.2,0.5,0.4,0.8,0.5s0.7,0.2,1,0.2
		c0.5,0,0.9-0.1,1.1-0.3s0.4-0.4,0.4-0.7c0-0.2-0.1-0.4-0.2-0.5c-0.1-0.1-0.3-0.2-0.5-0.3s-0.5-0.2-0.8-0.2c-0.4-0.1-0.8-0.2-1-0.3
		s-0.5-0.2-0.6-0.5s-0.3-0.5-0.3-0.8c0-0.3,0.1-0.5,0.2-0.8c0.1-0.2,0.4-0.4,0.7-0.6s0.7-0.2,1.2-0.2c0.3,0,0.6,0,0.9,0.1
		c0.3,0.1,0.6,0.2,0.8,0.4l-0.2,0.5c-0.2-0.2-0.5-0.3-0.8-0.3c-0.3-0.1-0.5-0.1-0.8-0.1c-0.5,0-0.9,0.1-1.1,0.3
		c-0.2,0.2-0.4,0.4-0.4,0.7c0,0.2,0.1,0.4,0.2,0.5s0.3,0.2,0.5,0.3c0.2,0.1,0.5,0.2,0.8,0.2c0.4,0.1,0.7,0.2,1,0.3
		c0.3,0.1,0.5,0.2,0.6,0.4c0.2,0.2,0.3,0.5,0.3,0.8s-0.1,0.5-0.2,0.8c-0.2,0.2-0.4,0.4-0.7,0.6c-0.3,0.1-0.7,0.2-1.2,0.2
		C-32.7,116.3-33.1,116.2-33.4,116.1z"/>
	<path id="XMLID_140_" class="st1" d="M-25.8,110.6h0.6v5.1h3.1v0.5h-3.7V110.6z"/>
	<path id="XMLID_138_" class="st1" d="M-20.6,110.6h0.6v5.6h-0.6V110.6z"/>
	<path id="XMLID_136_" class="st1" d="M-11.9,110.6v5.6h-0.6v-4.5l-2.2,3.8H-15l-2.2-3.7v4.5h-0.6v-5.6h0.5l2.4,4.2l2.4-4.2
		L-11.9,110.6L-11.9,110.6z"/>
	<path id="XMLID_134_" class="st1" d="M-9.6,110.6H-9v5.6h-0.6V110.6z"/>
	<path id="XMLID_132_" class="st1" d="M-5.6,111.1h-2v-0.5h4.5v0.5h-2v5.1h-0.6v-5.1H-5.6z"/>
	<path id="XMLID_130_" class="st1" d="M2.3,115.7v0.5h-4v-5.6h3.8v0.5h-3.2v2h2.9v0.5h-2.9v2.1H2.3z"/>
	<path id="XMLID_127_" class="st1" d="M4.2,110.6h2.3c0.6,0,1.1,0.1,1.6,0.4s0.8,0.6,1.1,1c0.2,0.4,0.4,0.9,0.4,1.5
		c0,0.5-0.1,1-0.4,1.5c-0.3,0.4-0.6,0.8-1.1,1s-1,0.4-1.6,0.4H4.2V110.6z M6.4,115.7c0.5,0,0.9-0.1,1.3-0.3c0.4-0.2,0.7-0.5,0.9-0.8
		c0.2-0.3,0.3-0.7,0.3-1.2c0-0.4-0.1-0.8-0.3-1.2c-0.2-0.3-0.5-0.6-0.9-0.8c-0.4-0.2-0.8-0.3-1.3-0.3H4.7v4.6H6.4z"/>
</g>
<polygon id="XMLID_125_" class="st2" points="-232.3,79.7 -262,79.7 -262,100 "/>
<polygon id="XMLID_124_" class="st2" points="-232.3,79.7 -202.5,79.7 -202.5,100 "/>
<polygon id="XMLID_123_" class="st3" points="-232.3,120.2 -262,120.2 -262,100 "/>
<polygon id="XMLID_122_" class="st3" points="-232.3,120.2 -202.5,120.2 -202.5,100 "/>
<polyline id="XMLID_121_" class="st0" points="-232.3,120.2 -202.5,100 -232.3,79.7 -262,100 -232.3,120.2 "/>
<g id="XMLID_118_">
	<path id="XMLID_119_" class="st2" d="M-228.4,94.2h3.6l-5.7,15.2h-3.3l-5.6-15.2h3.7l3.7,11.5L-228.4,94.2z"/>
</g>
</svg>
