<?xml version="1.0" encoding="UTF-8"?>
<svg id="Capa_1" data-name="Capa 1" xmlns="http://www.w3.org/2000/svg" xmlns:xlink="http://www.w3.org/1999/xlink" viewBox="0 0 314 265">
  <defs>
    <clipPath id="clippath">
      <circle cx="157" cy="132.5" r="109.82" style="fill: none;"/>
    </clipPath>
  </defs>
  <g>
    <path d="m157,246.5c-62.86,0-114-51.14-114-114S94.14,18.5,157,18.5s114,51.14,114,114-51.14,114-114,114Zm0-219.64c-58.25,0-105.64,47.39-105.64,105.64s47.39,105.64,105.64,105.64,105.64-47.39,105.64-105.64S215.25,26.86,157,26.86Z" style="fill: #0056a4; stroke: #0056a4; stroke-miterlimit: 10;"/>
    <g style="clip-path: url(#clippath);">
      <g>
        <path d="m157,241.13c-7.84,0-16.37-2.69-25.41-5.53-9.07-2.85-18.44-5.81-26.86-5.81-16.71,0-31.27,7.53-31.41,7.61-2.34,1.22-5.22.32-6.45-2.01-1.22-2.33-.32-5.22,2.01-6.45.68-.35,16.81-8.7,35.85-8.7,9.88,0,19.97,3.18,29.73,6.25,8.31,2.62,16.17,5.09,22.54,5.09s14.72-2.49,23.44-5.12c10.25-3.09,20.51-6.22,30.53-6.22,18.9,0,33.69,8.44,34.31,8.8,2.28,1.32,3.06,4.24,1.74,6.52-1.32,2.28-4.24,3.06-6.52,1.74-.12-.07-13.28-7.51-29.52-7.51-8.49,0-18.29,2.96-27.78,5.82-9.42,2.84-18.32,5.52-26.2,5.52Z" style="fill: #0056a4; stroke: #0056a4; stroke-miterlimit: 10;"/>
        <path d="m157,225.01c-7.75,0-16.24-2.67-25.23-5.5-9.11-2.87-18.53-5.84-27.04-5.84-16.85,0-31.54,7.6-31.69,7.68-2.05,1.07-4.57.28-5.64-1.76s-.28-4.57,1.76-5.64c.67-.35,16.68-8.63,35.57-8.63,9.79,0,19.83,3.16,29.55,6.22,8.36,2.63,16.26,5.12,22.72,5.12s14.85-2.5,23.62-5.14c10.1-3.05,20.55-6.2,30.36-6.2,18.74,0,33.4,8.36,34.01,8.72,2,1.16,2.68,3.71,1.52,5.71-1.16,2-3.71,2.68-5.71,1.52-.13-.07-13.4-7.59-29.82-7.59-8.58,0-18.43,2.97-27.95,5.84-9.38,2.83-18.23,5.5-26.03,5.5Z" style="fill: #0056a4; stroke: #0056a4; stroke-miterlimit: 10; stroke-width: .75px;"/>
        <path d="m157,209.44c-7.75,0-16.24-2.67-25.23-5.5-9.11-2.87-18.53-5.84-27.04-5.84-16.85,0-31.54,7.6-31.69,7.68-2.05,1.07-4.57.28-5.64-1.76s-.28-4.57,1.76-5.64c.67-.35,16.68-8.63,35.57-8.63,9.79,0,19.83,3.16,29.55,6.22,8.36,2.63,16.26,5.12,22.72,5.12s14.85-2.5,23.62-5.14c10.1-3.05,20.55-6.2,30.36-6.2,18.74,0,33.4,8.36,34.01,8.72,2,1.16,2.68,3.71,1.52,5.71-1.16,2-3.71,2.68-5.71,1.52-.13-.07-13.4-7.59-29.82-7.59-8.58,0-18.43,2.97-27.95,5.84-9.38,2.83-18.23,5.5-26.03,5.5Z" style="fill: #0056a4; stroke: #0056a4; stroke- miterlimit: 10; stroke-width: .75px;"/>
      </g>
    </g>
  </g>
  <path d="m156.05,224.03c-19.99-16.37-56.96-31.65-73.36-73.88-2.18,1.52-4.26,2.97-6.55,4.58,1.24-10.58,2.76-20.61,6.85-29.73,5.81,6.33,10.41,13.76,14.17,22.76h-7.48c8.53,33.41,56.95,53.73,58.63,50.64l9.05,1.15,8.48-1.15c4.78-.22,25.92-4.13,49.6-32.72,3.88-4.67,6.65-10.42,8.79-16.76.09-.27.12-.57.25-1.17h-7.48c1.94-4.64,4.11-8.87,6.56-12.75,2.28-3.62,4.81-6.94,7.62-10.01,4.08,9.12,5.61,19.15,6.85,29.73-2.3-1.6-4.37-3.05-6.55-4.58-10.15,32.29-49.82,57.02-61.23,64.16-4.26,2.67-7.9,5.7-11.57,9.72h-2.6" style="fill: #0056a4; stroke: #0056a4; stroke-miterlimit: 10; stroke-width: 2px;"/>
  <g>
    <path d="m182.7,162.07c-2.67.04-5.28,2.89-5.12,5.62.12,2.12,1.9,3.77,3.96,3.67,2.63-.12,4.98-2.76,4.92-5.51-.05-2.26-1.59-3.82-3.76-3.79Z" style="fill: none;"/>
    <path d="m131.13,162.07c-2.11-.02-3.77,1.62-3.83,3.79-.08,2.7,2.63,5.53,5.26,5.5,2.14-.03,3.65-1.66,3.64-3.93-.01-2.7-2.5-5.33-5.07-5.36Z" style="fill: none;"/>
    <path d="m204.84,150.99c-13.85-5.72-27.78-11.24-41.51-17.28-4.7-2.07-8.61-2.17-13.36-.03-13.44,6.03-27.11,11.5-40.97,17.28-.85.36-1.34,1.32-1.17,2.29.07.4.15.78.26,1.15,2.09,7.11,3.86,14.36,6.4,21.29,4.33,11.81,9.98,22.84,18.8,31.7,1.02,1.03,1.88,1.64,3.51,1.31,3.71-.75,6.78.82,9.22,3.83,0,0,0,.01.01.02.73.9,2.04.93,2.78.05,2.13-2.52,4.57-4.1,7.93-4.07,3.26.03,5.53,1.8,7.5,4.06.75.86,2,.87,2.76.03,3.22-3.56,5.82-4.73,9.31-3.9,1.67.39,2.5-.23,3.5-1.21,6.7-6.55,11.59-14.48,15.61-23.07,4.88-10.41,8.45-21.31,10.93-32.72-.6-.29-1.04-.53-1.5-.72Zm-72.28,20.37c-2.63.03-5.33-2.8-5.26-5.5.06-2.17,1.72-3.81,3.83-3.79,2.57.03,5.06,2.66,5.07,5.36.01,2.28-1.5,3.91-3.64,3.93Zm48.98,0c-2.06.1-3.84-1.56-3.96-3.67-.15-2.73,2.45-5.59,5.12-5.62,2.17-.03,3.71,1.52,3.76,3.79.06,2.75-2.29,5.39-4.92,5.51Z" style="fill: #0056a4;"/>
    <path d="m198,104v-11h-.71v-.07h-36.29v-22.93h13v-8h-13v-12.51c2.57-1.4,4.31-4.11,4.31-7.24,0-4.56-3.69-8.25-8.25-8.25s-8.25,3.69-8.25,8.25c0,3.08,1.69,5.75,4.19,7.16v12.59h-13v8h13v23h-37v11h12.62c0,3.86-.01,7.6.03,11.33,0,.86-.19,1.39-.66,1.67h-11.99v24l.45-.18c0,.2,0,.39,0,.58,1.3-.45,2.17-.72,3.01-1.05,11.67-4.53,23.33-9.11,35.04-13.55,1.21-.46,2.9-.44,4.13,0,7.96,2.91,15.84,6.01,23.75,9.04,4.95,1.89,9.91,3.77,15.07,5.73,0-.27,0-.53,0-.8l.53.21v-24h-12.49v-13h12.49Zm-19,10h-44v-8h44v8Z" style="fill: #0056a4;"/>
  </g>
</svg>
